<?xml version="1.0" standalone="no"?>
<!DOCTYPE svg PUBLIC "-//W3C//DTD SVG 20010904//EN"
 "http://www.w3.org/TR/2001/REC-SVG-20010904/DTD/svg10.dtd">
<svg version="1.0" xmlns="http://www.w3.org/2000/svg"
 width="2000.000000pt" height="1000.000000pt" viewBox="0 0 2000.000000 1000.000000"
 preserveAspectRatio="xMidYMid meet">

<g transform="translate(0.000000,1000.000000) scale(0.100000,-0.100000)"
fill="#000000" stroke="none">
<path d="M3300 7760 c-352 -14 -757 -62 -1090 -131 -85 -17 -174 -35 -196 -40
-240 -48 -808 -223 -1019 -313 -16 -7 -52 -22 -79 -32 -43 -17 -116 -85 -116
-109 0 -5 -6 -16 -14 -24 -8 -9 -31 -48 -51 -88 -20 -40 -43 -78 -51 -84 -8
-6 -14 -17 -14 -24 0 -6 -11 -32 -23 -56 -13 -24 -27 -56 -31 -71 -3 -16 -11
-28 -16 -28 -6 0 -10 -8 -10 -19 0 -10 -6 -24 -14 -30 -8 -7 -17 -24 -21 -39
-6 -26 -40 -105 -71 -165 -8 -16 -14 -35 -14 -43 0 -8 -4 -22 -9 -32 -12 -25
-41 -109 -57 -165 -7 -26 -16 -53 -20 -59 -4 -7 -9 -23 -10 -37 -2 -13 -7 -27
-11 -30 -4 -3 -9 -22 -11 -41 -1 -19 -8 -51 -16 -70 -7 -19 -17 -57 -21 -85
-4 -27 -11 -55 -16 -61 -5 -6 -12 -39 -15 -73 -4 -33 -10 -61 -14 -61 -7 0
-13 -39 -26 -165 -3 -27 -7 -59 -9 -70 -2 -11 -4 -55 -4 -97 -1 -63 -5 -82
-20 -97 -11 -11 -15 -21 -9 -23 16 -6 13 -108 -3 -119 -12 -8 -12 -11 1 -19
10 -6 11 -10 3 -10 -17 0 -17 -47 0 -53 9 -4 9 -6 0 -6 -15 -1 -19 -241 -4
-241 17 0 19 -40 3 -56 -13 -13 -13 -17 -1 -26 11 -7 11 -11 2 -15 -7 -2 -13
-9 -13 -14 0 -6 4 -7 10 -4 10 6 14 -7 11 -32 -1 -7 3 -21 8 -31 5 -10 6 -24
1 -31 -4 -8 -4 -28 1 -45 4 -17 10 -62 14 -101 9 -125 26 -239 36 -251 5 -7
12 -36 15 -65 3 -30 9 -63 13 -74 9 -21 37 -124 50 -185 13 -55 19 -63 66 -95
l44 -30 -21 -22 c-23 -24 -27 -86 -8 -121 11 -23 57 -141 65 -169 8 -28 36
-30 120 -7 155 41 300 76 410 99 66 14 152 32 190 41 39 8 86 18 105 21 19 3
96 16 170 30 74 13 180 31 235 39 55 8 127 19 160 24 33 4 121 16 195 25 74 8
171 20 215 25 687 83 1706 83 2420 0 141 -16 407 -51 510 -66 95 -14 133 -21
355 -60 135 -23 367 -70 485 -98 33 -8 89 -21 125 -29 183 -43 497 -131 705
-197 55 -17 111 -35 125 -40 100 -31 354 -124 500 -182 97 -39 104 -42 175
-74 33 -14 71 -30 85 -36 56 -20 80 -33 80 -42 0 -10 -23 -49 -87 -148 -24
-37 -43 -69 -43 -71 0 -10 -114 -172 -131 -187 -3 -3 -39 -50 -81 -105 -79
-106 -306 -354 -426 -467 -91 -86 -299 -251 -318 -254 -9 -1 -22 -11 -30 -21
-7 -10 -14 -14 -14 -10 0 5 -30 -17 -67 -48 -38 -30 -73 -59 -79 -63 -33 -23
-52 -33 -76 -43 -16 -6 -28 -14 -28 -19 0 -4 -8 -10 -17 -14 -10 -3 -30 -14
-44 -23 -75 -52 -96 -64 -121 -70 -15 -3 -33 -12 -39 -19 -6 -8 -16 -14 -21
-14 -5 0 -24 -11 -41 -24 -18 -13 -50 -29 -72 -36 -22 -7 -50 -21 -63 -31 -13
-10 -37 -21 -55 -24 -18 -4 -52 -17 -77 -30 -77 -39 -218 -95 -330 -130 -30
-9 -62 -19 -70 -23 -8 -3 -17 -6 -20 -7 -3 -1 -12 -4 -20 -8 -8 -3 -26 -8 -40
-11 -90 -18 -127 -28 -142 -36 -10 -6 -26 -10 -36 -10 -10 0 -45 -7 -77 -16
-33 -9 -82 -20 -110 -25 -27 -4 -88 -15 -134 -23 -97 -18 -158 -24 -326 -32
-66 -4 -125 -11 -132 -16 -7 -6 -19 -5 -32 2 -14 7 -21 7 -21 0 0 -12 -286
-14 -294 -1 -3 4 -38 9 -78 10 -156 4 -474 37 -493 51 -5 5 -52 13 -104 20
-52 7 -102 16 -110 20 -24 11 -110 37 -171 50 -30 7 -62 15 -70 18 -8 2 -22 6
-30 7 -18 3 -69 21 -130 46 -25 10 -63 23 -85 30 -22 6 -59 22 -82 35 -22 12
-43 21 -46 18 -4 -4 -68 24 -117 52 -14 7 -32 14 -41 14 -9 0 -22 7 -29 15 -7
8 -21 15 -30 15 -10 0 -20 5 -22 11 -2 5 -10 11 -18 13 -22 4 -52 16 -75 29
-11 6 -54 28 -95 50 -41 22 -78 44 -82 51 -4 6 -11 11 -15 11 -4 0 -22 9 -38
20 -50 33 -69 45 -90 54 -12 5 -27 16 -34 25 -7 8 -34 27 -59 42 -26 15 -75
49 -109 76 -35 27 -63 45 -63 41 0 -4 -12 5 -28 19 -15 14 -40 34 -57 44 -16
10 -32 21 -35 24 -3 3 -41 37 -85 75 -150 132 -197 177 -349 340 -30 33 -56
56 -56 50 0 -5 15 -25 33 -44 17 -19 42 -47 53 -63 29 -39 139 -158 255 -276
84 -86 138 -135 243 -223 16 -13 36 -32 45 -41 8 -10 21 -18 29 -18 7 0 15 -7
18 -15 4 -8 12 -15 19 -15 6 0 20 -9 30 -20 10 -11 22 -20 27 -20 5 0 21 -11
36 -25 15 -14 31 -25 36 -25 5 0 18 -10 30 -22 12 -13 39 -32 61 -43 21 -11
49 -30 61 -42 13 -13 29 -23 37 -23 8 0 21 -7 28 -17 8 -9 28 -22 44 -30 37
-16 64 -33 84 -52 9 -8 34 -23 56 -33 22 -11 67 -35 100 -53 33 -19 67 -35 76
-35 9 0 22 -7 29 -15 7 -8 20 -15 30 -15 10 0 23 -7 30 -15 7 -8 20 -15 29
-15 9 0 41 -13 71 -28 30 -16 72 -32 92 -36 20 -3 41 -13 47 -20 6 -7 33 -19
59 -26 26 -7 65 -21 88 -31 22 -11 47 -19 55 -19 8 0 19 -4 24 -9 6 -6 28 -14
50 -20 22 -5 94 -24 160 -41 66 -18 152 -38 190 -44 39 -7 77 -15 85 -18 20
-9 136 -28 235 -39 44 -5 114 -14 155 -19 41 -5 114 -9 163 -9 51 -1 87 -5 87
-11 0 -6 52 -10 135 -10 74 0 135 4 135 8 0 5 70 12 155 15 86 3 160 9 166 13
6 4 37 8 68 10 83 6 260 34 309 50 23 8 56 14 72 14 17 0 38 4 48 9 9 5 64 21
122 35 150 37 194 50 200 57 3 3 19 9 35 13 56 13 198 68 303 117 34 16 70 29
79 29 8 0 37 13 62 28 25 16 63 34 83 41 20 7 47 20 60 30 13 10 33 21 46 25
12 4 22 11 22 15 0 5 21 16 48 26 26 10 56 26 68 36 11 11 24 19 28 19 4 0 33
16 64 36 31 20 80 51 107 69 28 18 72 52 99 76 27 24 53 44 57 44 4 0 14 6 21
13 6 6 16 12 21 12 11 0 114 80 204 157 33 29 63 53 66 53 15 0 388 397 440
468 17 23 34 42 39 42 4 0 8 5 8 11 0 7 20 36 45 65 25 28 45 57 45 63 0 6 4
11 9 11 7 0 45 50 76 102 22 36 76 124 88 143 54 85 93 155 141 254 20 40 45
85 56 98 11 14 17 29 14 34 -5 9 22 64 44 87 6 7 12 22 12 33 0 11 7 30 16 43
8 14 16 35 18 48 1 12 9 34 18 48 9 14 21 44 27 67 7 23 16 45 21 48 5 3 14
31 20 63 7 31 16 59 20 62 7 5 15 32 45 153 6 25 20 72 43 147 11 36 23 88 26
115 3 28 12 82 21 120 8 39 17 99 20 134 3 35 10 70 15 77 8 8 8 14 0 19 -8 5
-8 11 -1 19 35 42 34 913 0 978 -6 12 -6 18 1 18 7 0 7 6 1 18 -6 9 -17 77
-26 150 -8 73 -19 141 -24 150 -5 9 -14 42 -20 72 -31 146 -39 177 -50 198 -7
13 -11 26 -8 28 3 3 -4 27 -14 55 -11 27 -19 62 -19 78 0 16 -4 31 -8 33 -5 2
-23 46 -42 98 -18 52 -39 102 -47 111 -7 8 -13 21 -13 28 0 6 -9 29 -20 51
-11 22 -20 47 -20 56 0 9 -14 39 -30 66 -17 26 -30 54 -30 62 0 17 -61 140
-72 144 -4 2 -8 12 -8 22 0 9 -7 23 -15 30 -8 6 -17 21 -21 33 -4 12 -24 45
-45 73 -21 29 -35 54 -32 57 3 4 -6 20 -21 37 -14 17 -26 36 -26 41 0 5 -4 9
-10 9 -5 0 -1 -15 10 -32 15 -27 72 -138 122 -240 4 -10 8 -23 8 -30 0 -6 6
-19 13 -27 8 -9 21 -36 30 -61 30 -88 44 -121 55 -132 15 -15 15 -28 2 -28 -6
0 -37 16 -68 37 -301 192 -900 486 -1327 650 -22 8 -49 19 -60 24 -125 54
-572 204 -760 255 -347 95 -585 152 -749 180 -50 8 -92 17 -96 19 -13 8 -228
40 -503 75 -398 51 -818 67 -1267 50z"/>
<path d="M7820 7114 c0 -5 7 -18 15 -28 12 -16 15 -17 15 -4 0 8 -7 21 -15 28
-8 7 -15 9 -15 4z"/>
<path d="M7865 7040 c3 -5 8 -10 11 -10 2 0 4 5 4 10 0 6 -5 10 -11 10 -5 0
-7 -4 -4 -10z"/>
<path d="M11410 6878 c0 -68 -35 -144 -82 -180 -55 -42 -149 -60 -226 -43 -28
6 -32 4 -32 -15 0 -23 24 -76 48 -102 13 -16 34 -18 154 -18 119 0 138 -2 138
-16 0 -24 40 -7 76 32 32 36 64 121 64 173 0 59 -31 134 -73 179 -55 57 -67
55 -67 -10z"/>
<path d="M10700 6562 c0 -8 7 -39 16 -70 13 -45 16 -87 12 -216 -5 -150 -8
-167 -38 -249 -49 -132 -148 -231 -283 -281 -120 -45 -152 -48 -484 -53 l-323
-5 0 -194 0 -194 -169 0 -170 0 -3 -95 -3 -95 243 0 242 0 0 195 0 195 218 0
c372 1 562 33 688 116 117 78 176 176 208 346 30 163 12 337 -49 463 -34 70
-105 162 -105 137z"/>
<path d="M13535 6545 l-30 -24 152 -1 c125 0 154 3 167 16 9 8 16 20 16 25 0
5 -60 9 -137 9 -132 0 -139 -1 -168 -25z"/>
<path d="M9600 6301 l0 -171 70 0 70 0 0 81 0 80 268 -2 267 -2 -3 32 c-5 60
-28 99 -74 122 -41 22 -57 23 -320 27 l-278 4 0 -171z"/>
<path d="M14976 6319 c-2 -8 -7 -39 -10 -69 -17 -159 -30 -230 -43 -230 -7 0
-47 11 -89 25 -77 25 -204 35 -204 16 0 -5 -5 -22 -11 -38 l-11 -28 -11 29
-12 28 -29 -28 c-74 -75 -92 -185 -81 -506 l7 -218 -166 0 -166 0 0 -95 0 -95
230 0 229 0 3 303 3 302 28 58 c21 41 41 66 70 85 37 24 51 27 127 26 62 0
104 -7 153 -24 37 -12 70 -20 74 -16 3 3 10 57 14 119 5 61 13 128 18 147 13
42 31 203 25 210 -3 2 -36 6 -74 8 -53 3 -71 1 -74 -9z"/>
<path d="M11404 6263 c-4 -32 -5 -261 -2 -510 l5 -453 -159 0 c-118 0 -160 -3
-163 -12 -2 -7 -5 -50 -7 -95 l-3 -83 235 0 235 0 -6 92 c-3 60 -9 93 -17 96
-9 3 -10 8 -3 15 5 7 11 207 15 467 3 250 8 474 12 498 l6 42 -70 0 -71 0 -7
-57z"/>
<path d="M12150 6310 c0 -15 50 -93 56 -87 6 6 -34 85 -47 93 -5 3 -9 0 -9 -6z"/>
<path d="M12730 6305 c-12 -14 -66 -94 -206 -301 l-55 -81 64 -96 64 -97 66
98 c36 53 104 153 151 222 l86 124 0 73 0 73 -79 0 c-58 0 -82 -4 -91 -15z"/>
<path d="M13880 6216 c0 -52 -4 -97 -8 -100 -5 -3 -39 -1 -78 4 -38 5 -111 11
-161 13 l-93 4 0 -145 c0 -153 15 -237 48 -277 17 -19 66 -55 77 -55 3 0 5 60
5 133 0 72 4 138 9 146 7 10 39 12 170 6 l161 -8 0 125 c0 69 -3 153 -6 187
l-7 61 -58 0 -59 0 0 -94z"/>
<path d="M14456 6263 c3 -27 8 -49 9 -51 1 -1 12 20 23 48 l21 50 -30 0 -30 0
7 -47z"/>
<path d="M15664 6145 c-86 -27 -126 -71 -150 -167 -18 -70 -10 -139 27 -212
17 -35 71 -86 91 -86 3 0 7 30 10 68 8 104 47 167 127 204 36 16 60 19 141 16
l97 -3 -8 29 c-11 39 -55 101 -86 121 -64 42 -170 55 -249 30z"/>
<path d="M16405 6145 c38 -119 42 -301 9 -430 -40 -156 -162 -308 -295 -369
-112 -51 -210 -69 -374 -69 -165 0 -260 19 -370 73 -82 40 -84 35 -19 -51 120
-158 344 -227 643 -199 245 22 404 120 499 305 55 109 67 165 67 320 -1 151
-8 184 -65 301 -31 61 -108 158 -95 119z"/>
<path d="M13057 6123 c-4 -3 -7 -46 -7 -95 0 -87 0 -88 25 -88 25 0 25 0 25
95 0 85 -2 95 -18 95 -10 0 -22 -3 -25 -7z"/>
<path d="M12154 5539 c-50 -79 -71 -114 -111 -191 l-25 -48 -112 0 -112 0 -24
-32 c-13 -18 -43 -61 -67 -95 l-43 -63 244 0 243 0 33 63 c19 34 58 102 87
150 31 52 51 96 48 105 -3 10 -29 55 -59 101 l-54 84 -48 -74z"/>
<path d="M13840 5376 l0 -74 -52 -13 c-34 -8 -111 -13 -213 -12 -131 1 -171 5
-220 21 -33 11 -61 19 -63 17 -10 -9 53 -108 85 -135 87 -73 252 -102 461 -81
70 7 127 13 128 14 1 1 4 77 6 170 l3 167 -67 0 -68 0 0 -74z"/>
<path d="M12455 5258 c14 -24 37 -67 51 -95 l25 -53 240 0 c131 0 239 3 239 8
0 4 -26 45 -58 92 l-57 85 -233 3 -233 2 26 -42z"/>
<path d="M9829 4266 c-2 -3 -38 -10 -79 -16 -74 -12 -166 -36 -185 -50 -5 -4
-21 -11 -35 -15 -79 -24 -209 -135 -274 -234 -95 -145 -127 -268 -133 -511 -5
-185 4 -255 49 -380 20 -56 90 -184 116 -209 19 -20 92 -119 92 -126 0 -22
139 -158 195 -192 81 -48 178 -83 298 -104 96 -18 138 -20 292 -16 117 3 197
10 230 20 28 9 75 22 105 31 89 24 121 39 195 83 83 50 126 88 182 163 37 50
99 168 91 174 -2 2 -42 22 -90 45 -49 22 -88 47 -88 54 0 7 6 21 14 32 32 46
29 60 -16 80 -59 25 -162 76 -228 112 -30 17 -71 39 -90 49 -19 11 -37 22 -40
26 -3 3 -14 -12 -25 -35 -25 -52 -31 -61 -78 -109 -47 -48 -92 -70 -183 -92
-161 -39 -383 7 -398 82 -21 109 -13 237 19 298 8 16 15 34 15 41 0 6 22 36
49 65 47 51 94 79 182 107 75 23 235 7 326 -35 17 -8 36 -14 42 -14 6 0 11 -4
11 -10 0 -5 6 -10 14 -10 15 0 120 -99 146 -138 l15 -23 45 26 c96 54 331 165
349 165 6 0 11 5 11 11 0 19 -71 132 -125 199 -29 36 -61 79 -71 95 -33 52
-37 57 -117 137 -105 105 -245 174 -422 209 -61 12 -396 24 -406 15z"/>
<path d="M13985 4034 c-16 -89 -126 -198 -206 -206 l-34 -3 -3 -145 c-1 -79
-6 -148 -10 -152 -8 -8 -95 32 -116 53 -6 5 1 20 19 39 16 16 27 31 24 34 -2
2 -31 21 -64 43 -160 107 -425 165 -651 143 -129 -12 -152 -16 -224 -40 -202
-64 -300 -184 -300 -364 0 -100 18 -144 87 -214 88 -90 90 -108 19 -212 -31
-44 -56 -84 -56 -87 0 -3 -12 -22 -27 -42 -44 -58 -52 -75 -39 -86 18 -15 45
-31 106 -62 30 -15 58 -32 62 -37 3 -5 -5 -24 -19 -42 -13 -18 -22 -38 -19
-43 18 -28 216 -124 316 -153 132 -38 207 -48 345 -48 383 1 591 129 615 380
15 146 -15 234 -99 295 -22 17 -41 35 -41 41 0 5 -12 33 -26 62 -14 29 -24 56
-22 61 9 25 166 193 185 197 52 14 58 6 63 -96 5 -95 5 -95 33 -98 l27 -3 0
-144 c0 -212 36 -330 129 -423 26 -26 58 -69 71 -97 39 -81 91 -123 193 -155
50 -16 92 -20 214 -20 84 0 175 5 203 11 l50 11 0 169 0 169 -70 0 -70 0 0 93
0 94 -52 -5 c-29 -2 -65 1 -81 7 l-28 11 3 147 3 148 105 -3 c58 -1 128 -6
155 -10 l50 -7 6 -95 c3 -52 11 -105 17 -117 7 -12 12 -29 12 -39 0 -46 76
-173 158 -264 12 -14 22 -29 22 -35 1 -22 93 -130 142 -168 112 -84 235 -116
445 -117 160 0 254 17 363 67 147 68 250 197 296 373 21 80 24 271 6 350 -18
79 -85 207 -136 263 -25 26 -59 71 -75 101 -42 73 -101 130 -190 182 -140 82
-338 118 -518 95 -214 -27 -330 -85 -422 -211 -27 -36 -59 -87 -72 -115 l-24
-50 -3 82 -3 82 -67 3 -67 3 -5 90 c-5 89 -5 90 -32 93 -31 4 -35 14 -13 36 8
8 15 17 15 20 0 3 -63 6 -140 6 -77 0 -140 3 -140 6 0 3 22 31 48 62 27 31 59
72 71 90 l22 32 -264 0 -265 0 -7 -36z m1707 -755 c44 -12 54 -35 43 -106 -22
-150 -140 -227 -316 -206 -42 5 -52 10 -60 31 -12 31 4 121 31 176 44 90 183
139 302 105z"/>
<path d="M17075 3836 c-95 -24 -169 -76 -221 -157 -17 -28 -32 -38 -60 -44
-49 -9 -60 6 -69 88 -12 103 1 97 -213 97 l-187 0 0 -600 0 -599 65 -3 65 -3
0 -93 0 -92 231 0 232 0 0 308 c-1 287 1 311 21 367 29 83 84 135 142 135 l42
0 -7 -237 c-3 -131 -9 -270 -12 -310 l-7 -72 74 -3 74 -3 -4 -92 -3 -93 221 0
221 0 -6 293 c-5 242 -3 303 9 355 25 104 85 166 153 160 l38 -3 -3 -255 c-1
-140 -4 -278 -4 -307 l-2 -52 70 -3 70 -3 -3 -92 -3 -93 231 0 232 0 -5 413
c-5 411 -10 472 -45 567 -23 64 -42 93 -101 155 -28 30 -51 60 -51 67 0 24
-97 137 -139 163 -67 40 -171 59 -246 45 -33 -7 -80 -21 -105 -32 -59 -27
-159 -129 -190 -196 -14 -28 -27 -52 -30 -52 -12 0 -56 56 -76 94 -24 49 -99
127 -144 150 -39 20 -141 46 -180 45 -14 0 -47 -6 -75 -13z m-123 -432 c-6
-11 -17 -37 -25 -59 l-15 -40 -12 43 c-15 57 -10 75 20 83 32 8 45 -3 32 -27z
m761 30 c7 -7 -20 -81 -37 -103 -8 -11 -12 -7 -19 20 -15 62 -13 72 13 80 34
10 36 10 43 3z"/>
<path d="M18999 3835 c-63 -7 -125 -18 -137 -24 -11 -6 -28 -11 -37 -11 -36 0
-152 -68 -206 -120 -66 -65 -99 -146 -99 -244 0 -97 54 -210 114 -237 23 -11
46 -59 46 -95 0 -11 -21 -52 -48 -90 -79 -116 -132 -205 -127 -214 6 -9 132
-84 158 -93 22 -8 22 -16 -7 -57 l-23 -34 36 -26 c77 -55 225 -118 353 -149
113 -28 144 -31 278 -31 298 0 496 79 569 226 13 27 29 58 34 69 6 11 12 66
15 121 4 93 2 107 -20 156 -16 35 -44 70 -77 99 -28 24 -51 50 -51 58 0 7 -12
35 -27 61 l-27 48 75 83 c41 46 84 94 96 105 20 21 21 23 5 37 -26 22 -102 69
-144 89 -21 9 -38 19 -38 22 0 3 13 19 29 35 33 34 33 35 -54 87 -124 75 -246
113 -430 134 -105 12 -104 12 -256 -5z"/>
<path d="M11018 3393 c3 -470 7 -510 63 -611 16 -29 47 -70 69 -91 22 -21 40
-41 40 -45 0 -12 65 -112 87 -133 79 -76 150 -103 268 -103 71 0 90 4 141 30
68 34 115 76 146 132 22 39 47 52 89 46 21 -3 25 -11 35 -68 6 -36 14 -77 18
-91 l7 -26 199 0 198 0 -6 36 c-8 42 -9 1004 -2 1101 l5 65 -75 5 -75 5 4 88
3 87 -236 0 -235 0 7 -32 c11 -53 8 -566 -5 -634 -12 -65 -51 -138 -87 -166
-13 -9 -40 -20 -61 -24 l-38 -7 6 342 5 341 -75 0 -76 0 6 90 6 90 -217 0
-217 0 3 -427z m772 -498 c0 -19 5 -46 12 -60 14 -31 -1 -50 -49 -60 -42 -8
-48 5 -25 57 11 24 22 55 26 71 10 40 36 35 36 -8z"/>
</g>
</svg>
